<?xml version="1.0" standalone="no"?>
<!DOCTYPE svg PUBLIC "-//W3C//DTD SVG 20010904//EN"
 "http://www.w3.org/TR/2001/REC-SVG-20010904/DTD/svg10.dtd">
<svg version="1.0" xmlns="http://www.w3.org/2000/svg"
 width="300.000000pt" height="300.000000pt" viewBox="0 0 300.000000 300.000000"
 preserveAspectRatio="xMidYMid meet">
<metadata>
Created by potrace 1.14, written by Peter Selinger 2001-2017
</metadata>
<g transform="translate(0.000000,300.000000) scale(0.100000,-0.100000)"
fill="#000000" stroke="none">
<path d="M232 2913 c-93 -265 -85 -485 23 -679 31 -56 127 -156 596 -625 307
-308 562 -559 566 -559 5 0 37 29 72 65 67 69 75 73 88 51 8 -13 108 -127 168
-191 17 -17 43 -47 59 -66 16 -19 64 -72 105 -119 42 -46 92 -102 111 -124 19
-21 42 -46 51 -55 8 -9 71 -79 140 -156 68 -77 129 -145 134 -151 6 -6 39 -44
75 -84 159 -180 203 -212 303 -216 78 -3 139 19 193 70 83 78 105 207 53 308
-15 29 -440 461 -1309 1330 l-1288 1288 -55 0 -55 0 -30 -87z"/>
<path d="M2038 2662 c-184 -185 -343 -353 -352 -372 -33 -65 -48 -115 -61
-199 l-13 -84 200 -199 c127 -126 205 -197 214 -194 8 3 36 8 62 11 72 9 152
34 202 63 44 26 700 671 700 689 0 5 -26 35 -58 66 l-58 58 -236 -236 c-130
-129 -238 -235 -242 -235 -3 0 -33 26 -65 58 l-59 59 239 239 238 239 -56 58
c-32 31 -62 57 -68 57 -5 0 -114 -103 -240 -230 -126 -126 -233 -230 -237
-230 -10 0 -118 108 -118 118 0 4 96 102 213 219 116 116 222 222 234 235 l23
24 -63 61 -63 62 -336 -337z"/>
<path d="M483 858 c-483 -484 -485 -486 -479 -604 8 -141 113 -243 256 -249
112 -4 111 -5 594 477 l438 438 -185 185 c-102 102 -187 185 -189 185 -2 0
-198 -195 -435 -432z"/>
</g>
</svg>
